<svg xmlns="http://www.w3.org/2000/svg" viewBox="0 0 64 64" role="img" aria-labelledby="title">
  <title>ScamShield Hub</title>
  <defs>
    <linearGradient id="bg" x1="0%" y1="0%" x2="100%" y2="100%">
      <stop offset="0%" stop-color="#0f172a" />
      <stop offset="100%" stop-color="#1d4ed8" />
    </linearGradient>
    <linearGradient id="shield" x1="0%" y1="0%" x2="100%" y2="100%">
      <stop offset="0%" stop-color="#93c5fd" />
      <stop offset="100%" stop-color="#38bdf8" />
    </linearGradient>
  </defs>
  <rect width="64" height="64" rx="16" fill="url(#bg)" />
  <path
    d="M32 10 47 16v12c0 10.6-6.4 19.9-15 24-8.6-4.1-15-13.4-15-24V16l15-6Z"
    fill="url(#shield)"
    stroke="#e0f2fe"
    stroke-width="2.2"
    stroke-linejoin="round"
  />
  <path
    d="M32 20c-5.7 0-10.5 4.8-10.5 10.5S26.3 41 32 41s10.5-4.8 10.5-10.5S37.7 20 32 20Z"
    fill="none"
    stroke="#e0f2fe"
    stroke-width="2.2"
  />
  <path
    d="M32 24c-3.5 0-6.5 3-6.5 6.5S28.5 37 32 37"
    fill="none"
    stroke="#0f172a"
    stroke-width="2.8"
    stroke-linecap="round"
  />
  <circle cx="32" cy="30.5" r="2.8" fill="#0f172a" />
</svg>
